<?xml version="1.0" encoding="UTF-8" standalone="no"?>
<!-- Generator: Adobe Illustrator 19.0.0, SVG Export Plug-In . SVG Version: 6.00 Build 0)  -->

<svg
   xmlns:dc="http://purl.org/dc/elements/1.1/"
   xmlns:cc="http://creativecommons.org/ns#"
   xmlns:rdf="http://www.w3.org/1999/02/22-rdf-syntax-ns#"
   xmlns:svg="http://www.w3.org/2000/svg"
   xmlns="http://www.w3.org/2000/svg"
   xmlns:sodipodi="http://sodipodi.sourceforge.net/DTD/sodipodi-0.dtd"
   xmlns:inkscape="http://www.inkscape.org/namespaces/inkscape"
   version="1.1"
   id="Layer_1"
   x="0px"
   y="0px"
   viewBox="0 0 509.287 509.287"
   style="enable-background:new 0 0 509.287 509.287;"
   xml:space="preserve"
   inkscape:version="0.91 r13725"
   sodipodi:docname="microfono1.svg"><metadata
     id="metadata63"><rdf:RDF><cc:Work
         rdf:about=""><dc:format>image/svg+xml</dc:format><dc:type
           rdf:resource="http://purl.org/dc/dcmitype/StillImage" /></cc:Work></rdf:RDF></metadata><defs
     id="defs61" /><sodipodi:namedview
     pagecolor="#ffffff"
     bordercolor="#666666"
     borderopacity="1"
     objecttolerance="10"
     gridtolerance="10"
     guidetolerance="10"
     inkscape:pageopacity="0"
     inkscape:pageshadow="2"
     inkscape:window-width="1440"
     inkscape:window-height="835"
     id="namedview59"
     showgrid="false"
     inkscape:zoom="1.1313304"
     inkscape:cx="254.64349"
     inkscape:cy="254.64349"
     inkscape:window-x="0"
     inkscape:window-y="0"
     inkscape:window-maximized="1"
     inkscape:current-layer="Layer_1" /><g
     id="g4191"
     transform="matrix(0.85073928,0,0,0.85073928,34.472687,35.356602)"><circle
       id="circle3"
       r="254.644"
       cy="254.644"
       cx="254.644"
       style="fill:#6eb1e1" /><rect
       id="rect5"
       height="81.038002"
       width="71.543999"
       style="fill:#dededf"
       y="386.543"
       x="219.041" /><path
       id="path7"
       d="m 254.644,16.275 0,0 c -50.861,0 -92.228,41.367 -92.228,92.228 l 0,146.14 c 0,50.861 41.367,92.228 92.228,92.228 l 0,0 c 50.861,0 92.228,-41.367 92.228,-92.228 l 0,-146.14 c 0,-50.861 -41.367,-92.228 -92.228,-92.228 z"
       style="fill:#646b79"
       inkscape:connector-curvature="0" /><g
       id="g9"><path
         id="path11"
         d="m 254.644,398.411 c -77.309,0 -140.376,-63.068 -140.376,-140.376 l 0,-94.601 c 0,-6.442 5.425,-11.868 11.868,-11.868 6.442,0 11.868,5.425 11.868,11.868 l 0,94.601 c 0,64.424 52.217,116.641 116.641,116.641 64.424,0 116.641,-52.217 116.641,-116.641 l 0,-94.601 c 0,-6.442 5.425,-11.868 11.868,-11.868 6.443,0 11.868,5.425 11.868,11.868 l 0,94.601 c -0.002,77.308 -63.07,140.376 -140.378,140.376 z"
         style="fill:#f1f3f7"
         inkscape:connector-curvature="0" /><rect
         id="rect13"
         height="23.735001"
         width="185.812"
         style="fill:#f1f3f7"
         y="455.375"
         x="161.73801" /></g><g
       id="g15"><path
         id="path17"
         d="m 214.633,118.675 -52.217,0 0,29.16 52.217,0 c 8.138,0 14.58,-6.442 14.58,-14.58 0,-8.137 -6.442,-14.58 -14.58,-14.58 z"
         style="fill:#414753"
         inkscape:connector-curvature="0" /><path
         id="path19"
         d="m 214.633,167.163 -52.217,0 0,29.16 52.217,0 c 8.138,0 14.58,-6.442 14.58,-14.58 0,-8.138 -6.442,-14.58 -14.58,-14.58 z"
         style="fill:#414753"
         inkscape:connector-curvature="0" /><path
         id="path21"
         d="m 214.633,215.65 -52.217,0 0,29.16 52.217,0 c 8.138,0 14.58,-6.442 14.58,-14.58 0,-8.137 -6.442,-14.58 -14.58,-14.58 z"
         style="fill:#414753"
         inkscape:connector-curvature="0" /><path
         id="path23"
         d="m 294.654,244.811 52.217,0 0,-29.16 -52.217,0 c -8.138,0 -14.58,6.442 -14.58,14.58 0,7.798 6.443,14.58 14.58,14.58 z"
         style="fill:#414753"
         inkscape:connector-curvature="0" /><path
         id="path25"
         d="m 294.654,196.323 52.217,0 0,-29.16 -52.217,0 c -8.138,0 -14.58,6.442 -14.58,14.58 0,8.138 6.443,14.58 14.58,14.58 z"
         style="fill:#414753"
         inkscape:connector-curvature="0" /><path
         id="path27"
         d="m 294.654,147.836 52.217,0 0,-29.16 -52.217,0 c -8.138,0 -14.58,6.442 -14.58,14.58 0,8.138 6.443,14.58 14.58,14.58 z"
         style="fill:#414753"
         inkscape:connector-curvature="0" /></g></g><g
     id="g29" /><g
     id="g31" /><g
     id="g33" /><g
     id="g35" /><g
     id="g37" /><g
     id="g39" /><g
     id="g41" /><g
     id="g43" /><g
     id="g45" /><g
     id="g47" /><g
     id="g49" /><g
     id="g51" /><g
     id="g53" /><g
     id="g55" /><g
     id="g57" /></svg>