<?xml version="1.0" encoding="UTF-8" standalone="no"?>
<svg
   xmlns:dc="http://purl.org/dc/elements/1.1/"
   xmlns:cc="http://creativecommons.org/ns#"
   xmlns:rdf="http://www.w3.org/1999/02/22-rdf-syntax-ns#"
   xmlns:svg="http://www.w3.org/2000/svg"
   xmlns="http://www.w3.org/2000/svg"
   xmlns:sodipodi="http://sodipodi.sourceforge.net/DTD/sodipodi-0.dtd"
   xmlns:inkscape="http://www.inkscape.org/namespaces/inkscape"
   width="298"
   height="345"
   viewBox="0 0 298 345"
   id="svg2"
   version="1.1"
   inkscape:version="0.91 r13725"
   sodipodi:docname="js-logo.svg">
  <metadata
     id="metadata19">
    <rdf:RDF>
      <cc:Work
         rdf:about="">
        <dc:format>image/svg+xml</dc:format>
        <dc:type
           rdf:resource="http://purl.org/dc/dcmitype/StillImage" />
        <dc:title></dc:title>
      </cc:Work>
    </rdf:RDF>
  </metadata>
  <defs
     id="defs17" />
  <sodipodi:namedview
     pagecolor="#ffffff"
     bordercolor="#666666"
     borderopacity="1"
     objecttolerance="10"
     gridtolerance="10"
     guidetolerance="10"
     inkscape:pageopacity="0"
     inkscape:pageshadow="2"
     inkscape:window-width="1920"
     inkscape:window-height="1003"
     id="namedview15"
     showgrid="false"
     inkscape:zoom="0.56190476"
     inkscape:cx="-160.66102"
     inkscape:cy="210"
     inkscape:window-x="0"
     inkscape:window-y="0"
     inkscape:window-maximized="1"
     inkscape:current-layer="svg2" />
  <style
     type="text/css"
     id="style4"><![CDATA[
	.st0{fill:#EBEBEB;}
	.st1{fill:#8ACF17;}
	.st2{fill:#FFFFFF;}
	.st3{fill:#63A814;}
]]></style>
  <path
     class="st3"
     d="M 27,311 0,7 298,7 271,311 149,345 Z"
     id="path6"
     inkscape:connector-curvature="0"
     style="fill:#63a814" />
  <path
     class="st1"
     d="M 149,318.84 247.48,291.54 270.68,32 149,32 Z"
     id="path8"
     inkscape:connector-curvature="0"
     style="fill:#8acf17" />
  <path
     id="J_1_"
     class="st2"
     d="m 55.476,70 3.33,37 142.38,0 -10.686,123.86 -41.64,11.228 -41.548,-11.203 -2.657,-29.885 -37.45,0 5.227,58.664 76.392,21.26 76.55,-21.26 L 242.348,70 Z"
     inkscape:connector-curvature="0"
     style="fill:#ffffff" />
  <path
     class="st0"
     d="M 148.86,242.088 107.312,230.885 104.655,201 l -37.45,0 5.227,58.664 76.568,21.26 z M 58.805,107 149,107 149,70 55.476,70 Z"
     id="path11"
     inkscape:connector-curvature="0"
     style="fill:#ebebeb" />
</svg>
